# xmcd
#
# Track frame offsets: 
#        150
#        17464
#        34520
#        51071
#        67261
#        83728
#        100937
#        118100
#        139495
#        155677
#        172726
#        200858
#
# Disc length: 2913 seconds
#
# Revision: 1
# Processed by: cddbd v1.5.2PL0 Copyright (c) Steve Scherf et al.
# Submitted via: ExactAudioCopy v0.99pb4
#
DISCID=a30b5f0c
DTITLE=Hevesi Tamás - Vagyok
DYEAR=2000
DGENRE=Rock
TTITLE0=Mienk a vilag!
TTITLE1=Tenyleg ilyen
TTITLE2=Jojj napfeny!
TTITLE3=Vasarnapi ebed
TTITLE4=Egyszer talan
TTITLE5=Szeretlek
TTITLE6=Nana, hogy szep!
TTITLE7=Sydney fele
TTITLE8=De a harmonika szol
TTITLE9=Mr. Vilagjaro
TTITLE10=Uzenet a Foldnek
TTITLE11=Mienk a vilag! (remix)
EXTD=
EXTT0=
EXTT1=
EXTT2=
EXTT3=
EXTT4=
EXTT5=
EXTT6=
EXTT7=
EXTT8=
EXTT9=
EXTT10=
EXTT11=
PLAYORDER=
